# xmcd CD database file
#
# Track frame offsets:
#	200
#	26195
#	41132
#	56650
#	76577
#	99200
#	112180
#	136572
#	157672
#	177040
#
# Disc length: 2618 seconds
#
# Revision: 2
# Processed by: cddbd v1.5.1PL0 Copyright (c) Steve Scherf et al.
# Submitted via: CDex 1.51
#
DISCID=6e0a380a
DTITLE=Johhny Adams - Walking On A Tightrope, The Songs of Percy Mayfield
DYEAR=1989
DGENRE=Blues
TTITLE0=Walking On A Tightrope
TTITLE1=Lost Mind
TTITLE2=Stand By
TTITLE3=My Heart Is Hangin' Heavy
TTITLE4=Danger Zone
TTITLE5=Never No More
TTITLE6=The Lover and the Married Woman
TTITLE7=You're In for a Big Surprise
TTITLE8=Look the Whole World Over
TTITLE9=Baby Please
EXTD=1989 Rounder Records CD 2095\nRecording: Mar,May-1989, Louisiana\nJohnny Adams: vocals\nDuke Robilard: guitar\nJon Cleary: piano\nJames Singleton: bass\nJohnny Vidacovich: drums\nBill "Foots" Samual: soprano, alto, tenor, baritone-saxes\nAmadee Cast
EXTD=enell: tenor sax\nTerry Tullos: trumpet\nJames Spells: trumpet\nErnie Gautreau: valve trombone\n\nEntry: Mike Lempriere  mikel@speakeasy.org  09-Jan-1997\n YEAR: 1989
EXTT0=
EXTT1=
EXTT2=
EXTT3=
EXTT4=
EXTT5=
EXTT6=
EXTT7=
EXTT8=
EXTT9=
PLAYORDER=
